<?xml version="1.0" encoding="UTF-8"?>
<svg version="1.1" xmlns="http://www.w3.org/2000/svg" width="100" height="100">
<path d="M0 0 C9.40707465 5.68464327 15.68680199 13.83643636 18.546875 24.5390625 C19.81816587 35.18018906 19.08411233 45.14253855 13.546875 54.5390625 C12.556875 55.5290625 12.556875 55.5290625 11.546875 56.5390625 C13.031875 57.0340625 13.031875 57.0340625 14.546875 57.5390625 C14.546875 58.8590625 14.546875 60.1790625 14.546875 61.5390625 C13.226875 61.5390625 11.906875 61.5390625 10.546875 61.5390625 C10.216875 60.8790625 9.886875 60.2190625 9.546875 59.5390625 C9.01320313 59.99796875 8.47953125 60.456875 7.9296875 60.9296875 C-2.56169886 69.56965274 -11.91574525 71.83539098 -25.31445312 70.80957031 C-34.8744138 69.60038807 -42.8797787 64.22976046 -48.828125 56.828125 C-51.453125 53.09114583 -51.453125 53.09114583 -51.453125 50.5390625 C-52.2575 50.5596875 -53.061875 50.5803125 -53.890625 50.6015625 C-56.453125 50.5390625 -56.453125 50.5390625 -57.453125 49.5390625 C-57.578125 46.5390625 -57.578125 46.5390625 -57.453125 43.5390625 C-56.958125 43.0440625 -56.958125 43.0440625 -56.453125 42.5390625 C-56.37687052 40.5797461 -56.30610979 38.62003955 -56.26513672 36.65966797 C-55.96707395 24.96481162 -53.82146128 15.03480794 -45.4765625 6.2890625 C-32.87910695 -4.60603419 -15.10756629 -7.47031593 0 0 Z " fill="#CEE0F2" transform="translate(68.453125,16.4609375)"/>
<path d="M0 0 C0.7027002 -0.00191345 1.40540039 -0.0038269 2.12939453 -0.00579834 C3.61556354 -0.00715975 5.10174445 -0.00346632 6.58789062 0.00488281 C8.86615646 0.01558346 11.14363377 0.00498661 13.421875 -0.0078125 C14.86458508 -0.0064909 16.30729466 -0.00392849 17.75 0 C19.06742188 0.00225586 20.38484375 0.00451172 21.7421875 0.00683594 C24.875 0.265625 24.875 0.265625 26.875 2.265625 C27.125 5.765625 27.125 5.765625 26.875 9.265625 C24.875 11.265625 24.875 11.265625 22.4921875 11.4609375 C21.58726563 11.43773437 20.68234375 11.41453125 19.75 11.390625 C18.83992188 11.37257813 17.92984375 11.35453125 16.9921875 11.3359375 C16.29351562 11.31273437 15.59484375 11.28953125 14.875 11.265625 C14.89071045 12.34569824 14.9064209 13.42577148 14.92260742 14.53857422 C14.97682234 18.5378476 15.01131904 22.53708838 15.03979492 26.53662109 C15.0549009 28.26909849 15.07538694 30.00153754 15.10131836 31.73388672 C15.13762321 34.22112478 15.15470765 36.70785826 15.16796875 39.1953125 C15.18345261 39.97244598 15.19893646 40.74957947 15.21488953 41.55026245 C15.21557617 43.73388672 15.21557617 43.73388672 14.875 47.265625 C11.40501271 49.57894986 9.94990752 49.60520063 5.875 49.265625 C4.885 48.605625 3.895 47.945625 2.875 47.265625 C2.6082384 44.49933585 2.52695811 41.95942869 2.58203125 39.1953125 C2.58627609 38.39908478 2.59052094 37.60285706 2.59489441 36.78250122 C2.61171166 34.23486771 2.64936821 31.68802011 2.6875 29.140625 C2.70254295 27.41537599 2.71623204 25.69011461 2.72851562 23.96484375 C2.76162499 19.73146718 2.81342715 15.49867941 2.875 11.265625 C2.17632812 11.28882813 1.47765625 11.31203125 0.7578125 11.3359375 C-0.15226562 11.35398437 -1.06234375 11.37203125 -2 11.390625 C-2.90492187 11.41382813 -3.80984375 11.43703125 -4.7421875 11.4609375 C-7.125 11.265625 -7.125 11.265625 -9.125 9.265625 C-9.375 5.765625 -9.375 5.765625 -9.125 2.265625 C-6.22058341 -0.63879159 -4.05742155 0.00694764 0 0 Z " fill="#2F79C4" transform="translate(41.125,25.734375)"/>
<path d="M0 0 C0.7027002 -0.00191345 1.40540039 -0.0038269 2.12939453 -0.00579834 C3.61556354 -0.00715975 5.10174445 -0.00346632 6.58789062 0.00488281 C8.86615646 0.01558346 11.14363377 0.00498661 13.421875 -0.0078125 C14.86458508 -0.0064909 16.30729466 -0.00392849 17.75 0 C19.06742188 0.00225586 20.38484375 0.00451172 21.7421875 0.00683594 C24.875 0.265625 24.875 0.265625 26.875 2.265625 C27.125 5.765625 27.125 5.765625 26.875 9.265625 C24.875 11.265625 24.875 11.265625 22.4921875 11.4609375 C21.58726563 11.43773437 20.68234375 11.41453125 19.75 11.390625 C18.83992188 11.37257813 17.92984375 11.35453125 16.9921875 11.3359375 C16.29351562 11.31273437 15.59484375 11.28953125 14.875 11.265625 C14.89071045 12.34569824 14.9064209 13.42577148 14.92260742 14.53857422 C14.97682234 18.5378476 15.01131904 22.53708838 15.03979492 26.53662109 C15.0549009 28.26909849 15.07538694 30.00153754 15.10131836 31.73388672 C15.13762321 34.22112478 15.15470765 36.70785826 15.16796875 39.1953125 C15.18345261 39.97244598 15.19893646 40.74957947 15.21488953 41.55026245 C15.21557617 43.73388672 15.21557617 43.73388672 14.875 47.265625 C11.40501271 49.57894986 9.94990752 49.60520063 5.875 49.265625 C4.885 48.605625 3.895 47.945625 2.875 47.265625 C2.6082384 44.49933585 2.52695811 41.95942869 2.58203125 39.1953125 C2.58627609 38.39908478 2.59052094 37.60285706 2.59489441 36.78250122 C2.61171166 34.23486771 2.64936821 31.68802011 2.6875 29.140625 C2.70254295 27.41537599 2.71623204 25.69011461 2.72851562 23.96484375 C2.76162499 19.73146718 2.81342715 15.49867941 2.875 11.265625 C2.17632812 11.28882813 1.47765625 11.31203125 0.7578125 11.3359375 C-0.15226562 11.35398437 -1.06234375 11.37203125 -2 11.390625 C-2.90492187 11.41382813 -3.80984375 11.43703125 -4.7421875 11.4609375 C-7.125 11.265625 -7.125 11.265625 -9.125 9.265625 C-9.375 5.765625 -9.375 5.765625 -9.125 2.265625 C-6.22058341 -0.63879159 -4.05742155 0.00694764 0 0 Z M-8.125 3.265625 C-8.29166667 5.765625 -8.29166667 5.765625 -8.125 8.265625 C-7.06521067 9.55175176 -7.06521067 9.55175176 -4.62109375 9.36328125 C-3.61175781 9.35167969 -2.60242187 9.34007812 -1.5625 9.328125 C-0.55058594 9.31910156 0.46132813 9.31007813 1.50390625 9.30078125 C2.28636719 9.28917969 3.06882812 9.27757812 3.875 9.265625 C3.86976318 10.38122803 3.86452637 11.49683105 3.85913086 12.64624023 C3.84108225 16.77041833 3.82956851 20.89459291 3.82006836 25.01879883 C3.81502782 26.80656521 3.80819546 28.59432745 3.79956055 30.38208008 C3.7874827 32.94613668 3.78176906 35.51013897 3.77734375 38.07421875 C3.77218246 38.8783873 3.76702118 39.68255585 3.76170349 40.51109314 C3.76150785 42.42964215 3.81298017 44.34807868 3.875 46.265625 C5.05218985 47.66995436 5.05218985 47.66995436 8.375 47.390625 C11.69781015 47.66995436 11.69781015 47.66995436 12.875 46.265625 C13.03503488 43.60135815 13.13442889 40.96002072 13.19140625 38.29296875 C13.21218735 37.49532608 13.23296844 36.69768341 13.25437927 35.87586975 C13.31996158 33.31837889 13.37879967 30.7607822 13.4375 28.203125 C13.48067699 26.47329618 13.52429101 24.74347821 13.56835938 23.01367188 C13.67565172 18.7644324 13.77689426 14.5150861 13.875 10.265625 C14.65746094 10.20503906 15.43992187 10.14445312 16.24609375 10.08203125 C17.25800781 9.99824219 18.26992188 9.91445313 19.3125 9.828125 C20.32183594 9.74691406 21.33117187 9.66570313 22.37109375 9.58203125 C24.81140779 9.53351032 24.81140779 9.53351032 25.875 8.265625 C26.04166667 5.765625 26.04166667 5.765625 25.875 3.265625 C24.19826351 1.58888851 22.14644924 2.13774683 19.90844727 2.12667847 C18.87095337 2.12971481 18.87095337 2.12971481 17.8125 2.1328125 C17.10601318 2.13185577 16.39952637 2.13089905 15.67163086 2.12991333 C14.17529207 2.12923167 12.67895033 2.13108495 11.18261719 2.13525391 C8.88469843 2.14060243 6.58697514 2.13530849 4.2890625 2.12890625 C2.83854123 2.12956703 1.38802009 2.1308482 -0.0625 2.1328125 C-0.7541626 2.13078827 -1.4458252 2.12876404 -2.15844727 2.12667847 C-5.42235638 1.86331767 -5.42235638 1.86331767 -8.125 3.265625 Z " fill="#53444A" transform="translate(41.125,25.734375)"/>
<path d="M0 0 C3 0.125 3 0.125 4 1.125 C4.125 4.125 4.125 4.125 4 7.125 C3 8.125 3 8.125 0 8.25 C-3 8.125 -3 8.125 -4 7.125 C-4.125 4.125 -4.125 4.125 -4 1.125 C-3 0.125 -3 0.125 0 0 Z " fill="#F0B319" transform="translate(83,10.875)"/>
<path d="M0 0 C2.5625 0.1875 2.5625 0.1875 4.5625 2.1875 C4.00694444 6.74305556 4.00694444 6.74305556 2.5625 8.1875 C0.0625 8.3125 0.0625 8.3125 -2.4375 8.1875 C-3.4375 7.1875 -3.4375 7.1875 -3.5625 4.1875 C-3.39891479 0.26145498 -3.39891479 0.26145498 0 0 Z " fill="#F9CD5C" transform="translate(14.4375,58.8125)"/>
<path d="M0 0 C0.33 0 0.66 0 1 0 C1.21677407 5.2321895 1.41368737 10.46460187 1.59204102 15.69824219 C1.65555993 17.47937098 1.7245502 19.26031326 1.79907227 21.04101562 C1.90511241 23.59736595 1.99160304 26.15373651 2.07421875 28.7109375 C2.11157639 29.50994476 2.14893402 30.30895203 2.18742371 31.13217163 C2.2487793 33.37646484 2.2487793 33.37646484 2 37 C-1.45245824 39.30163882 -2.94738713 39.34490322 -7 39 C-7.66 38.34 -8.32 37.68 -9 37 C-6.36 36.67 -3.72 36.34 -1 36 C-0.67 24.12 -0.34 12.24 0 0 Z " fill="#475C7D" transform="translate(54,36)"/>
<path d="M0 0 C1.98 0.495 1.98 0.495 4 1 C3.67 2.32 3.34 3.64 3 5 C1.68 4.67 0.36 4.34 -1 4 C-0.67 2.68 -0.34 1.36 0 0 Z " fill="#F9FBFD" transform="translate(17,51)"/>
<path d="M0 0 C1.32 0 2.64 0 4 0 C4 1.32 4 2.64 4 4 C2.68 4 1.36 4 0 4 C0 2.68 0 1.36 0 0 Z " fill="#77A2CE" transform="translate(23,85)"/>
<path d="M0 0 C1.32 0 2.64 0 4 0 C4 1.32 4 2.64 4 4 C2.68 4 1.36 4 0 4 C0 2.68 0 1.36 0 0 Z " fill="#77A2CE" transform="translate(11,27)"/>
<path d="M0 0 C1.32 0 2.64 0 4 0 C4 1.32 4 2.64 4 4 C2.68 4 1.36 4 0 4 C0 2.68 0 1.36 0 0 Z " fill="#77A2CE" transform="translate(85,22)"/>
<path d="M0 0 C0.66 0 1.32 0 2 0 C2 0.66 2 1.32 2 2 C1.34 2 0.68 2 0 2 C0 1.34 0 0.68 0 0 Z " fill="#F0B318" transform="translate(76,12)"/>
</svg>
